<svg width="26" height="25" viewBox="0 0 26 25" fill="none" xmlns="http://www.w3.org/2000/svg">
<path d="M13.3703 1.41678C13.3034 1.21077 13.1114 1.07129 12.8948 1.07129C12.6782 1.07129 12.4862 1.21077 12.4192 1.41678L9.83734 9.36308H1.4821C1.26548 9.36308 1.07351 9.50256 1.00657 9.70858C0.939632 9.91459 1.01296 10.1403 1.1882 10.2676L7.94773 15.1787L5.36582 23.125C5.29889 23.331 5.37222 23.5567 5.54746 23.684C5.7227 23.8113 5.96 23.8113 6.13525 23.684L12.8948 18.7729L19.6543 23.684C19.8295 23.8113 20.0668 23.8113 20.2421 23.684C20.4173 23.5567 20.4907 23.331 20.4237 23.125L17.8418 15.1787L24.6013 10.2676C24.7766 10.1403 24.8499 9.91459 24.783 9.70858C24.716 9.50256 24.5241 9.36308 24.3075 9.36308H15.9522L13.3703 1.41678Z" fill="#C6D4F9" stroke="#C6D4F9" stroke-linejoin="round"/>
</svg>
