<svg width="25" height="25" viewBox="0 0 25 25" fill="none" xmlns="http://www.w3.org/2000/svg">
<path d="M12.9627 1.41678C12.8958 1.21077 12.7038 1.07129 12.4872 1.07129C12.2706 1.07129 12.0786 1.21077 12.0117 1.41678L9.42974 9.36308H1.0745C0.857892 9.36308 0.665914 9.50256 0.598977 9.70858C0.532039 9.91459 0.605369 10.1403 0.780612 10.2676L7.54014 15.1787L4.95823 23.125C4.89129 23.331 4.96462 23.5567 5.13987 23.684C5.31511 23.8113 5.55241 23.8113 5.72765 23.684L12.4872 18.7729L19.2467 23.684C19.422 23.8113 19.6593 23.8113 19.8345 23.684C20.0097 23.5567 20.0831 23.331 20.0161 23.125L17.4342 15.1787L24.1938 10.2676C24.369 10.1403 24.4423 9.91459 24.3754 9.70858C24.3085 9.50256 24.1165 9.36308 23.8999 9.36308H15.5446L12.9627 1.41678Z" stroke="#C6D4F9" stroke-linejoin="round"/>
<path fill-rule="evenodd" clip-rule="evenodd" d="M12.4872 1.57129L9.79303 9.86308H1.07452L8.12794 14.9877L5.43377 23.2795L12.4872 18.1549V1.57129Z" fill="#C6D4F9"/>
</svg>
