<svg width="16" height="13" viewBox="0 0 16 13" fill="none" xmlns="http://www.w3.org/2000/svg">
<path d="M0.5625 11.1758C1.9065 12.0718 3.5065 12.5838 5.2985 12.5838C10.9945 12.5838 14.2585 7.78383 14.0025 3.43183C14.5785 2.98383 15.1545 2.47183 15.5385 1.83183C14.9625 2.08783 14.3865 2.21583 13.7465 2.34383C14.3865 1.95983 14.8985 1.38383 15.0905 0.615828C14.5145 0.999828 13.8105 1.25583 13.1705 1.38383C12.5945 0.807828 11.8265 0.423828 10.9305 0.423828C8.9465 0.423828 7.4745 2.27983 7.9225 4.19983C5.3625 4.07183 3.1225 2.85583 1.5865 0.999828C0.7545 2.40783 1.1385 4.19983 2.5465 5.09583C2.0345 5.09583 1.5865 4.96783 1.1385 4.71183C1.0745 6.11983 2.0985 7.46383 3.6345 7.78383C3.1865 7.91183 2.7385 7.91183 2.2265 7.84783C2.6105 9.06383 3.7625 9.95983 5.1065 9.95983C3.8265 10.8558 2.1625 11.3678 0.5625 11.1758Z" fill="white"/>
</svg>
